<?xml version="1.0" encoding="UTF-8"?>
<svg version="1.1" xmlns="http://www.w3.org/2000/svg" width="400" height="400">
<path d="M0 0 C6.31337196 2.97099857 8.73538933 10.11147775 11.125 16.1875 C11.76906123 17.78587146 12.41491415 19.38352205 13.0625 20.98046875 C13.39378906 21.79894287 13.72507812 22.61741699 14.06640625 23.46069336 C15.55374863 27.02846276 17.16458677 30.53511397 18.77734375 34.04760742 C20.23037151 37.23084378 21.64948416 40.42771517 23.0625 43.62890625 C23.56523437 44.76650391 24.06796875 45.90410156 24.5859375 47.07617188 C25.61342255 49.40366022 26.63946056 51.7317879 27.6640625 54.06054688 C30.3067571 60.03371429 33.05443186 65.91389291 36.01269531 71.73657227 C37.69021554 75.15015657 39.10056756 78.65294323 40.5 82.1875 C42.74182062 87.74790663 45.10458049 93.21466652 47.6875 98.625 C50.05249565 103.57935427 52.19809082 108.57085175 54.1875 113.6875 C55.91994965 118.14131323 57.78996855 122.44614584 60 126.6875 C63.14244886 132.76674007 65.61984394 139.0575308 68.05810547 145.4440918 C69.78508164 149.90119438 71.67796252 154.18091008 73.85546875 158.4375 C78.10289417 166.78575003 81.7303509 175.40258869 85.4375 184 C86.9407935 187.47739356 88.4462609 190.95383979 89.953125 194.4296875 C90.31696793 195.26942108 90.68081085 196.10915466 91.05567932 196.97433472 C94.18519168 204.17853841 97.40270509 211.34157487 100.78833008 218.4296875 C103.853302 225.02615804 103.853302 225.02615804 103.125 229 C102.1146698 230.6133976 102.1146698 230.6133976 100.125 232 C97.30605856 232.29486404 94.70791037 232.40458392 91.88793945 232.38095093 C91.03811399 232.3856309 90.18828852 232.39031087 89.31271076 232.39513266 C86.45441059 232.40713451 83.59658529 232.39760523 80.73828125 232.38818359 C78.69346842 232.39224699 76.64865778 232.39758756 74.60385132 232.40411377 C69.04196695 232.41782074 63.48024904 232.41247476 57.91836166 232.40297651 C52.10613293 232.39539742 46.29391873 232.40242064 40.48168945 232.40713501 C30.71986321 232.41259767 20.95810499 232.40538755 11.19628906 232.39111328 C-0.10032572 232.37478582 -11.39677809 232.38007397 -22.69338894 232.3965925 C-32.38090375 232.41019281 -42.06836958 232.41213415 -51.75589085 232.40427649 C-57.54687221 232.39959197 -63.33777716 232.39899649 -69.12875366 232.40888596 C-74.57226566 232.41753218 -80.01556762 232.41157664 -85.45905685 232.39420319 C-87.4605919 232.39022579 -89.46214452 232.39139368 -91.46367264 232.39799118 C-94.18866942 232.40614737 -96.9129864 232.39595719 -99.63793945 232.38095093 C-100.835738 232.39098918 -100.835738 232.39098918 -102.05773449 232.40123022 C-107.34672961 232.34444576 -107.34672961 232.34444576 -109.8971405 230.68151283 C-111.62476647 227.71071258 -110.64082815 225.22257776 -109.875 222 C-108.5546875 218.94140625 -108.5546875 218.94140625 -106.75 215.5625 C-102.33823501 207.0923754 -98.28913094 198.46428619 -94.25 189.8125 C-93.61054953 188.44537741 -92.97106442 187.07827103 -92.33154297 185.71118164 C-88.48705795 177.4859198 -84.6738434 169.2464444 -80.875 161 C-79.94547721 158.98560107 -79.01579057 156.97127774 -78.0859375 154.95703125 C-77.62517822 153.95865234 -77.16441895 152.96027344 -76.68969727 151.93164062 C-75.69559846 149.77790035 -74.70128142 147.6242608 -73.70678711 145.47070312 C-71.00147197 139.6116048 -68.29988173 133.75083948 -65.60546875 127.88671875 C-65.07453613 126.73260498 -64.54360352 125.57849121 -63.99658203 124.3894043 C-62.98712127 122.19486252 -61.97890202 119.99974906 -60.97216797 117.80395508 C-58.85357049 113.20139588 -56.70767926 108.62366895 -54.421875 104.1015625 C-51.30797075 97.93402708 -48.44917259 91.65120687 -45.5625 85.375 C-41.78886566 77.19943361 -37.98238847 69.05101071 -33.90307617 61.02270508 C-30.80528081 54.91175356 -27.837535 48.73998331 -24.875 42.5625 C-24.35848877 41.48572998 -23.84197754 40.40895996 -23.30981445 39.29956055 C-20.67565109 33.79640693 -18.06534788 28.28330442 -15.4909668 22.75195312 C-4.890625 0 -4.890625 0 0 0 Z M-11.875 59 C-12.2153125 59.8971875 -12.555625 60.794375 -12.90625 61.71875 C-15.77261537 69.14629613 -18.93017072 76.30098076 -22.56054688 83.38500977 C-26.19136013 90.51684318 -29.49019378 97.79343983 -32.80297852 105.07714844 C-35.48510147 110.972517 -38.20963868 116.84270977 -41 122.6875 C-43.96367196 128.90969904 -46.69464026 135.2135901 -49.375 141.5625 C-52.01687262 147.81906272 -54.76691954 153.96111191 -57.875 160 C-61.8762407 167.78179904 -65.29379421 175.77784615 -68.6875 183.83984375 C-70.0864783 187.16303733 -71.5189601 190.4664674 -73 193.75390625 C-73.32798584 194.48480469 -73.65597168 195.21570313 -73.99389648 195.96875 C-74.60478705 197.32424741 -75.2211425 198.67730066 -75.84399414 200.02734375 C-77.33204589 203.34619325 -77.875 205.27376867 -77.875 209 C-35.305 209 7.265 209 51.125 209 C50.36196836 202.8957469 49.76435374 199.44488095 47.5 194.0625 C47.23638672 193.42844238 46.97277344 192.79438477 46.70117188 192.14111328 C46.13884186 190.78961168 45.57267324 189.43970167 45.00292969 188.09130859 C44.11234605 185.96985714 43.24462106 183.84032109 42.3828125 181.70703125 C39.32752388 174.1624258 36.11598218 166.73545812 32.65234375 159.3671875 C30.89439862 155.49161537 29.28480169 151.56878029 27.6875 147.625 C25.22402627 141.54770798 22.57964693 135.59783263 19.75683594 129.67993164 C17.16479526 124.19839107 14.85370009 118.6163606 12.609375 112.984375 C10.9738842 108.91540031 9.15304849 105.01234439 7.1628418 101.10571289 C5.23978084 97.20394842 3.57135794 93.19171556 1.875 89.1875 C1.49093994 88.28620361 1.10687988 87.38490723 0.71118164 86.45629883 C-3.1787638 77.31600294 -7.03283767 68.16046877 -10.875 59 C-11.205 59 -11.535 59 -11.875 59 Z " fill="#010101" transform="translate(200.875,77)"/>
<path d="M0 0 C6.31337196 2.97099857 8.73538933 10.11147775 11.125 16.1875 C11.76906123 17.78587146 12.41491415 19.38352205 13.0625 20.98046875 C13.39378906 21.79894287 13.72507812 22.61741699 14.06640625 23.46069336 C15.55374863 27.02846276 17.16458677 30.53511397 18.77734375 34.04760742 C20.23037151 37.23084378 21.64948416 40.42771517 23.0625 43.62890625 C23.56523437 44.76650391 24.06796875 45.90410156 24.5859375 47.07617188 C25.61342255 49.40366022 26.63946056 51.7317879 27.6640625 54.06054688 C30.3067571 60.03371429 33.05443186 65.91389291 36.01269531 71.73657227 C37.69021554 75.15015657 39.10056756 78.65294323 40.5 82.1875 C42.74182062 87.74790663 45.10458049 93.21466652 47.6875 98.625 C50.05249565 103.57935427 52.19809082 108.57085175 54.1875 113.6875 C55.91994965 118.14131323 57.78996855 122.44614584 60 126.6875 C63.14244886 132.76674007 65.61984394 139.0575308 68.05810547 145.4440918 C69.78508164 149.90119438 71.67796252 154.18091008 73.85546875 158.4375 C78.10289417 166.78575003 81.7303509 175.40258869 85.4375 184 C86.9407935 187.47739356 88.4462609 190.95383979 89.953125 194.4296875 C90.31696793 195.26942108 90.68081085 196.10915466 91.05567932 196.97433472 C94.18519168 204.17853841 97.40270509 211.34157487 100.78833008 218.4296875 C103.853302 225.02615804 103.853302 225.02615804 103.125 229 C102.1146698 230.6133976 102.1146698 230.6133976 100.125 232 C97.30605856 232.29486404 94.70791037 232.40458392 91.88793945 232.38095093 C91.03811399 232.3856309 90.18828852 232.39031087 89.31271076 232.39513266 C86.45441059 232.40713451 83.59658529 232.39760523 80.73828125 232.38818359 C78.69346842 232.39224699 76.64865778 232.39758756 74.60385132 232.40411377 C69.04196695 232.41782074 63.48024904 232.41247476 57.91836166 232.40297651 C52.10613293 232.39539742 46.29391873 232.40242064 40.48168945 232.40713501 C30.71986321 232.41259767 20.95810499 232.40538755 11.19628906 232.39111328 C-0.10032572 232.37478582 -11.39677809 232.38007397 -22.69338894 232.3965925 C-32.38090375 232.41019281 -42.06836958 232.41213415 -51.75589085 232.40427649 C-57.54687221 232.39959197 -63.33777716 232.39899649 -69.12875366 232.40888596 C-74.57226566 232.41753218 -80.01556762 232.41157664 -85.45905685 232.39420319 C-87.4605919 232.39022579 -89.46214452 232.39139368 -91.46367264 232.39799118 C-94.18866942 232.40614737 -96.9129864 232.39595719 -99.63793945 232.38095093 C-100.835738 232.39098918 -100.835738 232.39098918 -102.05773449 232.40123022 C-107.34672961 232.34444576 -107.34672961 232.34444576 -109.8971405 230.68151283 C-111.62476647 227.71071258 -110.64082815 225.22257776 -109.875 222 C-108.5546875 218.94140625 -108.5546875 218.94140625 -106.75 215.5625 C-102.33823501 207.0923754 -98.28913094 198.46428619 -94.25 189.8125 C-93.61054953 188.44537741 -92.97106442 187.07827103 -92.33154297 185.71118164 C-88.48705795 177.4859198 -84.6738434 169.2464444 -80.875 161 C-79.94547721 158.98560107 -79.01579057 156.97127774 -78.0859375 154.95703125 C-77.62517822 153.95865234 -77.16441895 152.96027344 -76.68969727 151.93164062 C-75.69559846 149.77790035 -74.70128142 147.6242608 -73.70678711 145.47070312 C-71.00147197 139.6116048 -68.29988173 133.75083948 -65.60546875 127.88671875 C-65.07453613 126.73260498 -64.54360352 125.57849121 -63.99658203 124.3894043 C-62.98712127 122.19486252 -61.97890202 119.99974906 -60.97216797 117.80395508 C-58.85357049 113.20139588 -56.70767926 108.62366895 -54.421875 104.1015625 C-51.30797075 97.93402708 -48.44917259 91.65120687 -45.5625 85.375 C-41.78886566 77.19943361 -37.98238847 69.05101071 -33.90307617 61.02270508 C-30.80528081 54.91175356 -27.837535 48.73998331 -24.875 42.5625 C-24.35848877 41.48572998 -23.84197754 40.40895996 -23.30981445 39.29956055 C-20.67565109 33.79640693 -18.06534788 28.28330442 -15.4909668 22.75195312 C-4.890625 0 -4.890625 0 0 0 Z M-1.875 2 C-6.87355056 7.84147646 -9.68922194 14.72233054 -12.8125 21.6875 C-13.95861406 24.20990303 -15.11251258 26.72867578 -16.26953125 29.24609375 C-16.71235443 30.21018661 -16.71235443 30.21018661 -17.16412354 31.1937561 C-20.28829173 37.95763634 -23.63339389 44.60356315 -27 51.25 C-31.97521217 61.08827394 -36.70886341 71.00423908 -41.25439453 81.04785156 C-43.38043924 85.74435495 -45.5262515 90.40926429 -47.875 95 C-52.43935916 103.93026792 -56.46107993 113.13215162 -60.62207031 122.25488281 C-64.39872842 130.52938471 -68.2648138 138.75569704 -72.23828125 146.9375 C-72.5442775 147.56836014 -72.85027374 148.19922028 -73.1655426 148.84919739 C-74.71049675 152.03406296 -76.25877199 155.21721857 -77.8137207 158.3972168 C-80.95941272 164.85626323 -83.89400802 171.35406364 -86.61035156 178.00512695 C-88.93650608 183.51380215 -91.57426415 188.87316507 -94.1875 194.25 C-94.7542041 195.42643066 -95.3209082 196.60286133 -95.90478516 197.81494141 C-98.38766884 202.95376894 -100.88833871 208.07617536 -103.53515625 213.1328125 C-104.10592896 214.23061035 -104.10592896 214.23061035 -104.68823242 215.35058594 C-105.37229889 216.65485798 -106.06823604 217.95300669 -106.77856445 219.24316406 C-108.22942496 222.00887919 -108.90029228 223.70220378 -108.6328125 226.8515625 C-108.06508086 228.95379483 -108.06508086 228.95379483 -106.875 230 C-104.224121 230.10225824 -101.59914556 230.13886306 -98.94764709 230.13371277 C-97.68666448 230.1371111 -97.68666448 230.1371111 -96.40020746 230.14057809 C-93.56114353 230.14694799 -90.72212696 230.14608682 -87.88305664 230.14526367 C-85.8566227 230.1482533 -83.83018933 230.15165536 -81.80375671 230.15544128 C-76.28319351 230.16430536 -70.76264579 230.1666204 -65.24207616 230.16725707 C-60.64187023 230.16820412 -56.04166794 230.17188004 -51.44146341 230.17542917 C-40.59321658 230.18358282 -29.74497806 230.18601256 -18.89672852 230.18530273 C-7.68651259 230.18470165 3.52365525 230.19525758 14.733859 230.2110464 C24.34147651 230.22409851 33.94907827 230.22948762 43.55670458 230.22884732 C49.30240189 230.22859166 55.04805651 230.23148056 60.79374504 230.24202538 C66.19531725 230.25166732 71.5968056 230.25181253 76.99838066 230.24450874 C78.98582582 230.24345803 80.9732761 230.24585438 82.96071243 230.2518692 C85.66412985 230.25952371 88.36725292 230.25498815 91.07066345 230.24723816 C92.26320477 230.2549535 92.26320477 230.2549535 93.47983783 230.26282471 C97.7653225 230.39347967 97.7653225 230.39347967 101.125 228 C100.78172716 223.34842254 99.23813039 219.56942892 97.32421875 215.3515625 C97.04657181 214.73534027 96.76892487 214.11911804 96.48286438 213.48422241 C95.59931565 211.52809252 94.70591435 209.57664034 93.8125 207.625 C93.22399659 206.32319351 92.63610065 205.02111223 92.04882812 203.71875 C89.72035627 198.57250012 87.38310105 193.43746949 84.8203125 188.40234375 C83.41681703 185.58565124 82.29565784 182.91603237 81.3125 179.9375 C78.98482086 173.33019031 75.97717767 167.08751442 72.96679688 160.77197266 C70.22447273 154.99941214 67.56808104 149.20658798 65.25 143.25 C63.69402413 139.29267555 61.95211606 135.46459172 60.125 131.625 C56.67160087 124.35675492 53.52102121 116.96808946 50.375 109.5625 C46.0096142 99.29116611 41.49964308 89.10331908 36.77832031 78.99047852 C34.37382778 73.82100325 32.14869631 68.62429391 30.06347656 63.31835938 C28.68455068 59.91193893 27.1024859 56.61807068 25.5 53.3125 C22.206581 46.41623965 19.0984562 39.45069141 16.0625 32.4375 C15.4288855 30.97582397 15.4288855 30.97582397 14.7824707 29.48461914 C12.85260545 25.02351313 10.93502846 20.55764886 9.0390625 16.08203125 C8.72332275 15.343479 8.40758301 14.60492676 8.08227539 13.84399414 C7.50496337 12.49294224 6.9333983 11.13941323 6.36889648 9.78295898 C4.47495454 5.34505582 4.47495454 5.34505582 1.125 2 C0.135 2 -0.855 2 -1.875 2 Z " fill="#F2F2F2" transform="translate(200.875,77)"/>
<path d="M0 0 C3.45257095 3.03651061 4.90993687 5.68688056 6.4375 10 C10.29110314 20.74175093 14.91233234 31.1070229 19.75 41.4375 C23.85489258 50.26676107 27.83717039 59.13044935 31.63574219 68.09545898 C34.52979298 74.92430076 37.50279327 81.71584144 40.5 88.5 C45.02240387 98.75391451 49.50921149 109.02080903 53.87207031 119.34375 C54.6571645 121.19262981 55.44866701 123.03879608 56.24511719 124.8828125 C57.50985725 127.81229444 58.75637764 130.74900085 60 133.6875 C60.38623535 134.57203857 60.7724707 135.45657715 61.17041016 136.36791992 C63.63491653 142.26055355 64.72684766 147.61933207 65 154 C62.46683474 155.26658263 60.71209587 155.12869243 57.87561035 155.13371277 C56.79032547 155.13797775 55.70504059 155.14224274 54.58686829 155.14663696 C52.79299934 155.14595718 52.79299934 155.14595718 50.96289062 155.14526367 C49.70760056 155.14862228 48.45231049 155.1519809 47.15898132 155.15544128 C43.71072348 155.16429 40.26249043 155.16661973 36.81422234 155.16725707 C33.93878303 155.16820536 31.06334954 155.17188265 28.18791246 155.17542917 C21.40668475 155.18357665 14.62547032 155.18601309 7.84423828 155.18530273 C0.84030515 155.1847015 -6.16355107 155.19526169 -13.16746473 155.2110464 C-19.17428435 155.22410339 -25.18107876 155.22948743 -31.18791246 155.22884732 C-34.77843458 155.22859184 -38.36888834 155.23147075 -41.95939636 155.24202538 C-45.96061502 155.25346601 -49.96166022 155.24897089 -53.96289062 155.24291992 C-55.15880325 155.24853943 -56.35471588 155.25415894 -57.58686829 155.25994873 C-58.67215317 155.25575424 -59.75743805 155.25155975 -60.87561035 155.24723816 C-61.82245949 155.24778293 -62.76930862 155.24832769 -63.74485016 155.24888897 C-66 155 -66 155 -68 153 C-67.89720399 146.09397734 -64.61792912 140.30993601 -61.6875 134.1875 C-58.59519692 127.64656223 -55.60804114 121.12706099 -52.97241211 114.38842773 C-51.31421904 110.31559248 -49.36616656 106.38750528 -47.4375 102.4375 C-43.56922874 94.42859516 -39.91837003 86.34503192 -36.375 78.1875 C-32.75021226 69.8465496 -28.96227456 61.65990828 -24.75390625 53.59765625 C-23.42344965 50.97068702 -22.3109931 48.3114292 -21.24609375 45.56640625 C-18.6347007 38.91034651 -15.56013229 32.47600296 -12.50927734 26.01318359 C-11.49927726 23.87346885 -10.49342902 21.73184156 -9.48828125 19.58984375 C-6.4011304 13.02135248 -3.29305464 6.46850019 0 0 Z M0 3 C-0.3403125 3.8971875 -0.680625 4.794375 -1.03125 5.71875 C-3.89761537 13.14629613 -7.05517072 20.30098076 -10.68554688 27.38500977 C-14.31636013 34.51684318 -17.61519378 41.79343983 -20.92797852 49.07714844 C-23.61010147 54.972517 -26.33463868 60.84270977 -29.125 66.6875 C-32.08867196 72.90969904 -34.81964026 79.2135901 -37.5 85.5625 C-40.14187262 91.81906272 -42.89191954 97.96111191 -46 104 C-50.0012407 111.78179904 -53.41879421 119.77784615 -56.8125 127.83984375 C-58.2114783 131.16303733 -59.6439601 134.4664674 -61.125 137.75390625 C-61.45298584 138.48480469 -61.78097168 139.21570313 -62.11889648 139.96875 C-62.72978705 141.32424741 -63.3461425 142.67730066 -63.96899414 144.02734375 C-65.45704589 147.34619325 -66 149.27376867 -66 153 C-23.43 153 19.14 153 63 153 C62.23696836 146.8957469 61.63935374 143.44488095 59.375 138.0625 C59.11138672 137.42844238 58.84777344 136.79438477 58.57617188 136.14111328 C58.01384186 134.78961168 57.44767324 133.43970167 56.87792969 132.09130859 C55.98734605 129.96985714 55.11962106 127.84032109 54.2578125 125.70703125 C51.20252388 118.1624258 47.99098218 110.73545812 44.52734375 103.3671875 C42.76939862 99.49161537 41.15980169 95.56878029 39.5625 91.625 C37.09902627 85.54770798 34.45464693 79.59783263 31.63183594 73.67993164 C29.03979526 68.19839107 26.72870009 62.6163606 24.484375 56.984375 C22.8488842 52.91540031 21.02804849 49.01234439 19.0378418 45.10571289 C17.11478084 41.20394842 15.44635794 37.19171556 13.75 33.1875 C13.36593994 32.28620361 12.98187988 31.38490723 12.58618164 30.45629883 C8.6962362 21.31600294 4.84216233 12.16046877 1 3 C0.67 3 0.34 3 0 3 Z " fill="#EBEBEB" transform="translate(189,133)"/>
<path d="M0 0 C0.33 0 0.66 0 1 0 C1.66 1.98 2.32 3.96 3 6 C69 6.33 135 6.66 203 7 C202.67 7.66 202.34 8.32 202 9 C175.97507064 9.07000984 149.95015535 9.12294877 123.92515087 9.15543652 C111.84191431 9.17092053 99.75873617 9.19203933 87.67553711 9.22631836 C77.14664319 9.25617377 66.61779158 9.27556383 56.08885652 9.28226548 C50.51130934 9.28618429 44.93388321 9.29542581 39.35637474 9.31719017 C34.11074181 9.33749439 28.86528024 9.34384611 23.61961174 9.33932304 C21.69063131 9.34015097 19.76164537 9.34615258 17.83269882 9.35761642 C15.20609841 9.37246575 12.58015142 9.36898148 9.95353699 9.36076355 C9.18408585 9.36950207 8.41463472 9.3782406 7.62186688 9.38724393 C2.50133887 9.34371506 2.50133887 9.34371506 0.01852894 7.64151478 C-1.40420847 5.34855638 -1.2780634 3.64160229 -1 1 C-0.67 0.67 -0.34 0.34 0 0 Z " fill="#FBFBFB" transform="translate(91,300)"/>
<path d="M0 0 C3.45257095 3.03651061 4.90993687 5.68688056 6.4375 10 C10.29110314 20.74175093 14.91233234 31.1070229 19.75 41.4375 C23.85489258 50.26676107 27.83717039 59.13044935 31.63574219 68.09545898 C34.52979298 74.92430076 37.50279327 81.71584144 40.5 88.5 C47.18655859 103.66083086 53.74602724 118.86836766 60.0625 134.1875 C60.65442139 135.61485474 60.65442139 135.61485474 61.25830078 137.07104492 C61.61778809 137.94865479 61.97727539 138.82626465 62.34765625 139.73046875 C62.66742432 140.50801514 62.98719238 141.28556152 63.31665039 142.08666992 C64 144 64 144 64 146 C63.01 145.67 62.02 145.34 61 145 C59.640625 142.21875 59.640625 142.21875 58.25 138.5 C57.7249492 137.12722478 57.19886759 135.75484346 56.671875 134.3828125 C56.39923828 133.66383789 56.12660156 132.94486328 55.84570312 132.20410156 C54.45204287 128.57189464 52.98047349 124.97253425 51.5 121.375 C51.20512695 120.65699219 50.91025391 119.93898438 50.60644531 119.19921875 C48.39240902 113.8504578 45.99007556 108.60620848 43.52734375 103.3671875 C41.76939862 99.49161537 40.15980169 95.56878029 38.5625 91.625 C36.09902627 85.54770798 33.45464693 79.59783263 30.63183594 73.67993164 C28.03979526 68.19839107 25.72870009 62.6163606 23.484375 56.984375 C21.85010448 52.91843626 20.03096766 49.01820214 18.04223633 45.11450195 C16.09712149 41.16822891 14.40557793 37.11147586 12.6875 33.0625 C12.30086182 32.15604736 11.91422363 31.24959473 11.51586914 30.31567383 C7.93885266 21.90656027 4.44921569 13.46222371 1 5 C-0.98 5.99 -0.98 5.99 -3 7 C-1.125 1.125 -1.125 1.125 0 0 Z " fill="#E8E8E8" transform="translate(189,133)"/>
<path d="M0 0 C0.66 0 1.32 0 2 0 C3.35439668 2.70879335 3.06501451 5.00933268 3 8 C0.46683474 9.26658263 -1.28790413 9.12869243 -4.12438965 9.13371277 C-5.20967453 9.13797775 -6.29495941 9.14224274 -7.41313171 9.14663696 C-9.20700066 9.14595718 -9.20700066 9.14595718 -11.03710938 9.14526367 C-12.29239944 9.14862228 -13.54768951 9.1519809 -14.84101868 9.15544128 C-18.28927652 9.16429 -21.73750957 9.16661973 -25.18577766 9.16725707 C-28.06121697 9.16820536 -30.93665046 9.17188265 -33.81208754 9.17542917 C-40.59331525 9.18357665 -47.37452968 9.18601309 -54.15576172 9.18530273 C-61.15969485 9.1847015 -68.16355107 9.19526169 -75.16746473 9.2110464 C-81.17428435 9.22410339 -87.18107876 9.22948743 -93.18791246 9.22884732 C-96.77843458 9.22859184 -100.36888834 9.23147075 -103.95939636 9.24202538 C-107.96061502 9.25346601 -111.96166022 9.24897089 -115.96289062 9.24291992 C-117.75675957 9.25134918 -117.75675957 9.25134918 -119.58686829 9.25994873 C-120.67215317 9.25575424 -121.75743805 9.25155975 -122.87561035 9.24723816 C-123.82245949 9.24778293 -124.76930862 9.24832769 -125.74485016 9.24888897 C-128 9 -128 9 -130 7 C-129.625 4.875 -129.625 4.875 -129 3 C-128.67 4.32 -128.34 5.64 -128 7 C-85.43 7 -42.86 7 1 7 C0.67 4.69 0.34 2.38 0 0 Z " fill="#FDFEFE" transform="translate(251,279)"/>
<path d="M0 0 C1 2 1 2 0.46875 3.890625 C-2.63867957 11.45871961 -6.26837037 18.72541864 -10 26 C-10.66 26 -11.32 26 -12 26 C-9.74809594 18.11833578 -5.92638464 5.92638464 0 0 Z " fill="#F0EFEF" transform="translate(187,139)"/>
<path d="M0 0 C3 1 3 1 4.16674805 2.9777832 C4.70875854 4.25141724 4.70875854 4.25141724 5.26171875 5.55078125 C5.65810547 6.47697266 6.05449219 7.40316406 6.46289062 8.35742188 C7.06907227 9.82018555 7.06907227 9.82018555 7.6875 11.3125 C8.10322266 12.27607422 8.51894531 13.23964844 8.94726562 14.23242188 C12 21.46574815 12 21.46574815 12 26 C9.79233274 23.2270271 8.18959353 20.53478765 6.73828125 17.3046875 C6.34189453 16.42425781 5.94550781 15.54382813 5.53710938 14.63671875 C5.13298828 13.72535156 4.72886719 12.81398437 4.3125 11.875 C3.68891602 10.49634766 3.68891602 10.49634766 3.05273438 9.08984375 C0 2.26254618 0 2.26254618 0 0 Z " fill="#EAEBEA" transform="translate(233,146)"/>
<path d="M0 0 C3.64826477 3.64826477 5.66664657 8.80939173 6.4375 13.875 C6 16 6 16 5 17.8125 C1.76011038 19.73618446 -1.2825819 19.18282384 -5 19 C-4.67 18.34 -4.34 17.68 -4 17 C-1.6859378 16.26924352 0.64828869 15.59861742 3 15 C2.57337451 11.94251735 2.099067 9.24475377 0.9375 6.375 C0 4 0 4 0 0 Z " fill="#F6F6F6" transform="translate(298,290)"/>
<path d="M0 0 C0.66 0 1.32 0 2 0 C1.33358397 4.64690094 -0.4103055 8.53646098 -2.375 12.75 C-2.67921875 13.43449219 -2.9834375 14.11898437 -3.296875 14.82421875 C-4.11518218 16.59022355 -5.05088529 18.30071166 -6 20 C-6.99 20.33 -7.98 20.66 -9 21 C-7.50640515 16.15713185 -5.54966433 11.68649104 -3.375 7.125 C-2.88773438 6.09246094 -2.88773438 6.09246094 -2.390625 5.0390625 C-1.59676528 3.35794781 -0.79880442 1.67877079 0 0 Z " fill="#E5E6E5" transform="translate(149,219)"/>
<path d="M0 0 C0.71484375 1.546875 0.71484375 1.546875 1 4 C-0.05391226 6.53857885 -1.13965574 8.84495527 -2.4375 11.25 C-2.77587891 11.8996875 -3.11425781 12.549375 -3.46289062 13.21875 C-4.29786887 14.81814494 -5.14753114 16.40985859 -6 18 C-6.66 18 -7.32 18 -8 18 C-6.10463724 11.48180123 -3.4821006 5.82185199 0 0 Z " fill="#F4F4F4" transform="translate(149,177)"/>
<path d="M0 0 C4.43601966 3.51822249 5.52033129 7.75390186 7 13 C6.01 12.67 5.02 12.34 4 12 C2.3125 8.4375 2.3125 8.4375 1 5 C-0.98 5.99 -0.98 5.99 -3 7 C-1.125 1.125 -1.125 1.125 0 0 Z " fill="#E1E1E2" transform="translate(189,133)"/>
<path d="M0 0 C1 3 1 3 -0.21484375 5.91796875 C-0.78332031 6.99691406 -1.35179688 8.07585937 -1.9375 9.1875 C-2.50339844 10.27417969 -3.06929688 11.36085938 -3.65234375 12.48046875 C-4.09707031 13.31191406 -4.54179688 14.14335937 -5 15 C-5.66 15 -6.32 15 -7 15 C-5.45454854 9.52067211 -2.84456788 4.88570819 0 0 Z " fill="#F6F6F6" transform="translate(113,255)"/>
<path d="M0 0 C0.66 0 1.32 0 2 0 C1.34197179 4.3429862 -0.03638798 8.07277596 -2 12 C-2.99 12.33 -3.98 12.66 -5 13 C-4.54554036 11.58208592 -4.08625056 10.16571954 -3.625 8.75 C-3.24214844 7.56664062 -3.24214844 7.56664062 -2.8515625 6.359375 C-2.04826333 4.13372042 -1.10288338 2.09068328 0 0 Z " fill="#E9E9E9" transform="translate(126,270)"/>
<path d="M0 0 C1.8272911 2.74093665 2.93698178 5.13825324 4.125 8.1875 C4.47820312 9.08855469 4.83140625 9.98960937 5.1953125 10.91796875 C5.46085938 11.60503906 5.72640625 12.29210937 6 13 C5.01 13 4.02 13 3 13 C2.30329584 11.21189234 1.61788811 9.41937948 0.9375 7.625 C0.55464844 6.62726563 0.17179688 5.62953125 -0.22265625 4.6015625 C-1 2 -1 2 0 0 Z " fill="#E5E5E5" transform="translate(214,188)"/>
<path d="M0 0 C0.66 0.66 1.32 1.32 2 2 C0.02 5.96 -1.96 9.92 -4 14 C-4.66 13.34 -5.32 12.68 -6 12 C-4.02 8.04 -2.04 4.08 0 0 Z " fill="#E9ECEC" transform="translate(195,81)"/>
<path d="M0 0 C1 3 1 3 0.00390625 5.48046875 C-0.47175781 6.37378906 -0.94742188 7.26710937 -1.4375 8.1875 C-1.91058594 9.08855469 -2.38367188 9.98960937 -2.87109375 10.91796875 C-3.24363281 11.60503906 -3.61617188 12.29210937 -4 13 C-4.33 13 -4.66 13 -5 13 C-5.83861979 7.63283335 -2.92070405 4.20372761 0 0 Z " fill="#E7E7E7" transform="translate(127,225)"/>
<path d="M0 0 C0.33 0.66 0.66 1.32 1 2 C0.00390625 4.3828125 0.00390625 4.3828125 -1.4375 7.125 C-1.91058594 8.03507813 -2.38367188 8.94515625 -2.87109375 9.8828125 C-3.24363281 10.58148438 -3.61617187 11.28015625 -4 12 C-4.33 12 -4.66 12 -5 12 C-4.58525633 6.71201818 -3.64775386 3.88309282 0 0 Z " fill="#E8E8E8" transform="translate(166,143)"/>
<path d="M0 0 C2.18975773 3.28463659 2.99806563 6.20696275 4 10 C3.01 9.67 2.02 9.34 1 9 C-0.25 5.5625 -0.25 5.5625 -1 2 C-0.67 1.34 -0.34 0.68 0 0 Z " fill="#D5D5D5" transform="translate(249,269)"/>
<path d="M0 0 C0.66 0 1.32 0 2 0 C5 5.625 5 5.625 5 9 C4.34 9 3.68 9 3 9 C0 3.375 0 3.375 0 0 Z " fill="#EAEAEA" transform="translate(269,227)"/>
<path d="M0 0 C3 1 3 1 4.25 3.3125 C5.04631835 6.16597407 4.8214856 7.24802325 4 10 C3.32845067 8.71086513 2.66291141 7.41859796 2 6.125 C1.62875 5.40570313 1.2575 4.68640625 0.875 3.9453125 C0 2 0 2 0 0 Z " fill="#F1F1F1" transform="translate(225,217)"/>
<path d="M0 0 C1.19156292 4.76625167 0.3415946 5.87879351 -2 10 C-2.66 9.67 -3.32 9.34 -4 9 C-2.68 6.03 -1.36 3.06 0 0 Z " fill="#F7F8F8" transform="translate(121,236)"/>
<path d="M0 0 C0.66 0 1.32 0 2 0 C3.5625 2.8125 3.5625 2.8125 5 6 C4.67 6.99 4.34 7.98 4 9 C1.49701566 6.06171403 0.53069061 3.82097239 0 0 Z " fill="#E9E9E8" transform="translate(255,195)"/>
<path d="M0 0 C1 3 1 3 -0.4375 6.1875 C-1.2109375 7.5796875 -1.2109375 7.5796875 -2 9 C-2.66 8.34 -3.32 7.68 -4 7 C-1.125 1.125 -1.125 1.125 0 0 Z " fill="#EAEAE9" transform="translate(153,169)"/>
<path d="M0 0 C0.99 0.33 1.98 0.66 3 1 C4.1875 4.0625 4.1875 4.0625 5 7 C4.01 7.495 4.01 7.495 3 8 C0 2.25 0 2.25 0 0 Z " fill="#DDDDDD" transform="translate(283,260)"/>
<path d="M0 0 C2.52259061 1.97420135 2.9929808 2.96745642 3.6875 6.1875 C3.790625 7.115625 3.89375 8.04375 4 9 C1.43135272 7.71567636 1.053461 6.63365249 0 4 C0 2.68 0 1.36 0 0 Z " fill="#F3F3F3" transform="translate(236,241)"/>
<path d="M0 0 C2.72426311 2.35277269 3.8141763 4.62496331 5 8 C4.01 8.495 4.01 8.495 3 9 C0 3.375 0 3.375 0 0 Z " fill="#E8E8E8" transform="translate(241,163)"/>
</svg>
